<?xml version="1.0" encoding="UTF-8" standalone="no"?>
<!-- Created with Inkscape (http://www.inkscape.org/) -->

<svg
   width="155.31047mm"
   height="15.853516mm"
   viewBox="0 0 155.31047 15.853516"
   version="1.1"
   id="svg1"
   xml:space="preserve"
   xmlns="http://www.w3.org/2000/svg"
   xmlns:svg="http://www.w3.org/2000/svg"><defs
     id="defs1" /><g
     id="layer1"
     transform="translate(35.416364,-1.1589296)"><path
       style="fill:#000000"
       d="m 59.305784,16.547286 c -0.744366,-0.262649 -1.743109,-0.973451 -2.669613,-1.899955 -1.886565,-1.886565 -2.478729,-3.483623 -2.300932,-6.2055804 0.153745,-2.353725 0.800088,-3.665962 2.604939,-5.288679 5.017345,-4.511024 13.052223,-0.867853 13.052223,5.918133 0,5.4795724 -5.479988,9.3132304 -10.686617,7.4760814 z m 3.773515,-1.059935 c 0.54566,-0.605492 0.821706,-1.75383 0.617338,-2.568099 -0.222134,-0.885052 -1.720018,-1.1891 -2.698755,-0.547807 -0.600865,0.393703 -0.663634,0.568854 -0.508426,1.418728 0.360933,1.976369 1.604079,2.791028 2.589843,1.697178 z m -3.381736,-0.589208 c 0.298408,-0.482833 -0.40637,-2.38385 -1.036963,-2.79703 -0.342697,-0.224544 -1.052397,-0.477929 -1.577112,-0.563078 -1.413946,-0.229452 -1.251275,0.463801 0.513014,2.186297 1.48963,1.454345 1.815252,1.636261 2.101061,1.173811 z m 6.88856,-1.145559 c 0.797273,-0.77222 1.449588,-1.605657 1.449588,-1.852083 0,-0.959629 -2.466291,-0.239797 -3.050747,0.890417 -0.445294,0.861102 -0.520745,2.365704 -0.118633,2.365704 0.148612,0 0.922518,-0.631817 1.719792,-1.404038 z m -2.934936,-3.245069 c 0.234252,-0.234252 0.415774,-0.8613284 0.415774,-1.4363104 0,-1.346137 -0.543149,-1.852083 -1.988271,-1.852083 -1.295662,0 -1.980479,0.640419 -1.980479,1.852083 0,1.2116644 0.684817,1.8520834 1.980479,1.8520834 0.698789,0 1.321324,-0.1646 1.572497,-0.415773 z M 58.907586,9.0712046 v -1.455208 l -1.36013,0.0097 c -1.58719,0.01136 -2.211744,0.424448 -2.211744,1.462864 0,1.0452384 0.885076,1.6076224 2.38125,1.5130634 l 1.190624,-0.07525 z m 9.489319,1.0391304 c 0.86717,-0.6821174 0.878376,-1.1465304 0.04771,-1.9771984 -0.715223,-0.715223 -2.429021,-0.904729 -3.001818,-0.331932 -0.336201,0.3362 -0.426309,1.736919 -0.156901,2.4389854 0.244538,0.637256 2.241769,0.553891 3.111011,-0.129855 z M 58.796947,6.0089016 c 0.639841,-0.579048 1.180827,-2.455635 0.813739,-2.822722 -0.484537,-0.484538 -3.481224,2.318596 -3.481224,3.256376 0,0.465627 2.040308,0.133934 2.667485,-0.433654 z m 9.238764,0.233007 c 0,-0.473564 -2.708431,-3.256121 -3.16938,-3.256121 -0.345014,0 -0.349588,1.344253 -0.0076,2.24366 0.43403,1.141585 3.177014,2.015728 3.177014,1.012461 z m -4.640539,-0.437724 c 0.389973,-0.285155 0.457609,-0.580831 0.337576,-1.475744 -0.176288,-1.314324 -0.824695,-2.136403 -1.685069,-2.136403 -1.169524,0 -2.14735,2.674737 -1.290919,3.531168 0.528331,0.528331 1.966265,0.572465 2.638412,0.08098 z M 42.954766,15.122987 c -1.166069,-0.577192 -2.171137,-2.02652 -2.171137,-3.130825 0,-0.47126 0.167777,-0.539707 1.322917,-0.539707 0.931785,0 1.322916,0.105215 1.322916,0.355868 0,0.487442 0.782027,1.126431 1.622284,1.325557 0.903325,0.214072 2.283578,-0.272718 2.473946,-0.872515 0.333757,-1.051575 -0.20054,-1.476732 -3.319855,-2.6417144 -0.809921,-0.302484 -1.821952,-0.914634 -2.248958,-1.360332 -0.69229,-0.722595 -0.776375,-0.992431 -0.776375,-2.491463 0,-1.42801 0.09958,-1.78768 0.661458,-2.389016 0.363802,-0.389352 0.982968,-0.875194 1.375924,-1.079649 0.993288,-0.516808 3.32431,-0.468663 4.439635,0.0917 1.117122,0.561261 2.121941,1.98911 2.121941,3.015279 0,0.716606 -0.05925,0.754622 -1.176188,0.754622 -1.012872,0 -1.224115,-0.09832 -1.521354,-0.708066 -0.709579,-1.455615 -3.158137,-1.312664 -3.334252,0.194659 -0.105132,0.899795 0.489522,1.385579 2.723075,2.224532 1.017861,0.382322 2.175968,1.0068 2.573571,1.387728 1.32902,1.2732824 1.545022,3.2312964 0.527742,4.7838624 -1.06099,1.619276 -4.419826,2.167205 -6.61729,1.079484 z M -35.416368,8.7995486 v -6.621657 l 3.902604,0.07322 3.902604,0.07322 v 1.058333 1.058334 l -2.579687,0.07573 -2.579687,0.07573 v 1.700281 1.700282 l 2.447395,0.07607 2.447396,0.07607 v 1.190625 1.1906254 l -2.447396,0.07607 -2.447395,0.07607 v 2.371322 2.371321 h -1.322917 -1.322917 z m 9.260417,0.01434 v -6.621848 h 1.322916 1.322917 v 5.41403 5.4140304 l 2.447396,0.07607 2.447395,0.07607 v 1.058333 1.058333 l -3.770312,0.07341 -3.770312,0.07341 z m 7.943416,6.4227094 c 0.0033,-0.116746 0.98552,-3.069765 2.182813,-6.5622654 l 2.176895,-6.35 h 1.702628 1.702627 l 2.1858677,6.35 c 1.2022271,3.4925004 2.1922165,6.4392974 2.1999765,6.5484374 0.00776,0.109141 -0.6146402,0.198438 -1.3831115,0.198438 h -1.3972206 l -0.3887168,-1.124479 -0.3887168,-1.124479 -2.5186525,-0.07499 -2.518653,-0.07499 -0.391764,1.133324 c -0.388255,1.123172 -0.404206,1.134041 -1.780826,1.213297 -0.763985,0.04398 -1.3864,-0.01555 -1.383146,-0.132291 z m 7.667,-4.907717 c 0,-0.4500954 -1.342565,-4.5140944 -1.576664,-4.7726274 -0.172069,-0.190029 -1.598336,4.090574 -1.598336,4.7970284 0,0.19691 0.564032,0.305426 1.5875,0.305426 1.091295,0 1.5875,-0.103094 1.5875,-0.329827 z m 5.2916663,-1.5222564 v -6.614584 h 1.0415484 1.0415485 l 2.46418056,3.950481 2.46418054,3.9504814 0.073037,-3.9504814 0.073037,-3.950481 h 1.3160256 1.3160253 v 6.614584 6.6145834 H 3.505729 2.4757438 L 0,11.447062 -2.4757438,7.4729196 l -0.073037,3.9741424 -0.073037,3.974143 H -3.9378431 -5.2538683 Z M 6.771343,15.085005 C 6.700386,14.900093 6.674357,11.953296 6.713501,8.5365666 l 0.071171,-6.212234 3.307292,-0.07828 c 3.791991,-0.08975 5.071642,0.175082 6.488303,1.342814 3.777939,3.114097 2.572625,10.1693874 -1.969824,11.5303384 -1.439242,0.431207 -7.6709396,0.40402 -7.8391,-0.0342 z m 7.410052,-2.568593 c 1.448392,-0.701155 2.112898,-1.867881 2.112898,-3.7097874 0,-2.876954 -1.749749,-4.323718 -5.055136,-4.179794 l -1.8086518,0.07875 -0.073739,3.824291 c -0.040557,2.1033614 -0.014528,3.9785954 0.057842,4.1671884 0.217667,0.567232 3.4770318,0.44371 4.7667868,-0.18065 z m 6.229318,-3.7168604 v -6.621657 l 3.902604,0.07322 3.902604,0.07322 v 1.058333 1.058334 l -2.579687,0.07573 -2.579688,0.07573 v 1.435326 1.435326 l 2.315105,0.07645 2.315104,0.07645 0.08136,1.124479 0.08136,1.124479 h -2.396463 -2.396463 v 1.5875004 1.5875 h 2.645834 2.645833 v 1.190625 1.190625 h -3.96875 -3.96875 z m 9.643962,6.2854534 c -0.07096,-0.184912 -0.09699,-3.131709 -0.05784,-6.5484384 l 0.07117,-6.212234 3.190537,-0.07388 c 2.958258,-0.0685 3.256365,-0.02952 4.094746,0.535463 2.564183,1.728003 2.869422,4.872798 0.673938,6.943405 l -0.883362,0.8331174 1.819119,2.230949 c 1.000515,1.227022 1.819462,2.320246 1.819883,2.429386 4.2e-4,0.109141 -0.63234,0.198438 -1.406134,0.198438 H 37.969833 L 36.16112,13.172247 c -1.619654,-2.013884 -1.901262,-2.248959 -2.694143,-2.248959 h -0.885431 v 2.248959 2.248958 h -1.198929 c -0.725478,0 -1.249875,-0.132765 -1.327942,-0.336203 z m 6.231038,-7.0721304 c 0.327579,-0.32758 0.529166,-0.881945 0.529166,-1.455209 0,-1.438465 -0.72788,-1.984375 -2.645833,-1.984375 h -1.5875 v 1.984375 1.984375 h 1.5875 c 1.234722,0 1.705092,-0.117592 2.116667,-0.529166 z m 37.835414,0.795043 v -6.642284 l 1.497335,0.07935 1.497335,0.07935 1.63638,3.773125 c 0.900009,2.075219 1.694116,3.83086 1.764682,3.901426 0.07057,0.07057 0.892816,-1.654999 1.827222,-3.834589 l 1.698921,-3.962891 1.521354,-0.0047 1.521354,-0.0047 v 6.614584 6.6145834 h -1.316362 -1.316363 l -0.0727,-4.257562 -0.0727,-4.2575624 -1.351444,3.1330834 -1.351445,3.133083 h -1.020975 -1.020975 l -1.331747,-3.010887 -1.331747,-3.0108874 -0.132291,4.0692204 -0.132292,4.06922 -1.256771,0.08064 -1.256771,0.08064 z m 13.871331,6.1502694 c 0.08176,-0.254661 1.088363,-3.201458 2.236893,-6.5484374 l 2.088236,-6.085417 1.68354,-0.07452 1.683541,-0.07452 2.187602,6.424523 c 1.203181,3.5334874 2.18545,6.5200414 2.18281,6.6367874 -0.003,0.116745 -0.620502,0.176276 -1.373053,0.132291 -1.354932,-0.07919 -1.371935,-0.09102 -1.744932,-1.21373 l -0.376668,-1.133757 -2.554546,0.07542 -2.554546,0.07542 -0.388717,1.124479 -0.388717,1.124479 h -1.41505 c -1.227909,0 -1.39539,-0.06124 -1.266393,-0.463021 z m 7.45508,-5.4239584 c -1.008777,-3.296467 -1.334535,-4.155415 -1.50648,-3.972246 -0.20419,0.217518 -1.563681,4.430539 -1.563681,4.8458004 0,0.138009 0.768211,0.250925 1.707136,0.250925 h 1.707136 z m 5.396502,-0.727604 v -6.614584 h 1.31397 1.31397 l 0.0751,2.844271 0.0751,2.844271 2.22121,-2.844271 2.22122,-2.844271 h 1.4168 c 0.77925,0 1.41681,0.06909 1.41681,0.153542 0,0.08445 -0.96377,1.413774 -2.14172,2.954056 -1.17794,1.540283 -2.20333,2.96108 -2.27863,3.157326 -0.0753,0.196246 0.88846,1.7219564 2.14171,3.3904664 1.25325,1.66851 2.27864,3.155182 2.27864,3.303716 0,0.148533 -0.59012,0.270061 -1.31137,0.270061 h -1.31137 l -2.19436,-2.895842 c -1.2069,-1.592714 -2.28365,-2.9024014 -2.39279,-2.9104174 -0.10915,-0.008 -0.19844,1.2951134 -0.19844,2.8958424 v 2.910417 h -1.32292 -1.32292 z m 11.1125,-0.0071 v -6.621657 l 3.90261,0.07322 3.9026,0.07322 v 1.058333 1.058334 l -2.57969,0.07573 -2.57968,0.07573 v 1.435326 1.435326 l 2.3151,0.07645 2.31511,0.07645 0.0814,1.124479 0.0814,1.124479 h -2.39646 -2.39646 v 1.5875004 1.5875 h 2.64583 2.64583 v 1.190625 1.190625 h -3.96875 -3.96875 z"
       id="path55" /></g></svg>
