<?xml version="1.0" encoding="UTF-8" standalone="no"?>
<!-- Created with Inkscape (http://www.inkscape.org/) -->

<svg
   width="18.23926mm"
   height="18.290419mm"
   viewBox="0 0 18.23926 18.290419"
   version="1.1"
   id="svg1"
   xml:space="preserve"
   xmlns="http://www.w3.org/2000/svg"
   xmlns:svg="http://www.w3.org/2000/svg"><defs
     id="defs1" /><g
     id="layer1"
     transform="translate(-20.919073,-59.363339)"><path
       style="fill:#ffffff;fill-opacity:1"
       d="m 27.854743,77.469149 c -2.617636,-0.660345 -5.055017,-2.707994 -6.228988,-5.232988 -0.582839,-1.253579 -0.701721,-1.886572 -0.706486,-3.76172 -0.0051,-2.01653 0.08532,-2.439456 0.85673,-4.006423 1.005448,-2.042355 2.442721,-3.442644 4.529747,-4.413189 1.235905,-0.574742 1.866672,-0.691493 3.735919,-0.691493 2.753139,0 4.616149,0.754309 6.489255,2.627414 1.873105,1.873106 2.627413,3.736115 2.627413,6.489254 0,1.876753 -0.115976,2.498401 -0.700757,3.756157 -0.885244,1.903994 -2.737916,3.769168 -4.582908,4.613833 -1.609201,0.736717 -4.411423,1.024928 -6.019925,0.619155 z m 3.375122,-1.578131 c 0.274269,-0.303065 0.532233,-1.106896 0.607883,-1.894205 0.154573,-1.608668 -0.250567,-2.077226 -1.796083,-2.077226 -1.545515,0 -1.950655,0.468558 -1.796083,2.077226 0.152409,1.586144 0.771619,2.420691 1.796083,2.420691 0.391455,0 0.926145,-0.236919 1.1882,-0.526486 z m -4.049724,-1.466126 c -0.160934,-1.950551 -0.860669,-2.676944 -3.037622,-3.153351 -1.058379,-0.231617 -1.306683,0.02511 -0.859907,0.889079 0.48973,0.947034 3.291824,3.518294 3.683501,3.380058 0.171081,-0.06038 0.262,-0.534362 0.214028,-1.115786 z m 8.654739,-1.070249 c 0.754838,-0.825912 1.325194,-1.635501 1.267459,-1.799086 -0.136763,-0.387504 -1.916884,-0.239077 -2.836577,0.236515 -0.881122,0.455646 -1.861826,2.894232 -1.439051,3.578296 0.267165,0.432282 1.566672,-0.438496 3.008169,-2.015725 z m -3.970875,-3.144002 c 0.606857,-0.606857 0.577084,-2.88419 -0.04585,-3.507125 -0.615644,-0.615645 -2.899907,-0.653069 -3.495704,-0.05727 -0.984934,0.984935 -0.697457,3.463734 0.458597,3.954298 0.821717,0.348689 2.564818,0.12824 3.082959,-0.389901 z M 26.32819,69.820315 c 0.384203,-0.717891 0.340967,-2.205775 -0.08086,-2.782659 -0.290067,-0.396692 -0.604144,-0.461192 -1.722472,-0.353735 -1.586143,0.152409 -2.42069,0.771618 -2.42069,1.796083 0,1.171367 0.967354,1.796213 2.834961,1.831195 0.845377,0.01583 1.181433,-0.102925 1.389063,-0.490884 z M 37.445898,69.67434 c 0.681154,-0.616436 0.684435,-1.769266 0.0068,-2.382535 -0.303065,-0.27427 -1.106895,-0.532233 -1.894204,-0.607884 -1.118328,-0.107457 -1.432405,-0.04296 -1.722473,0.353735 -0.429044,0.586752 -0.463001,2.068623 -0.06447,2.813291 0.251351,0.469655 0.481467,0.52655 1.715691,0.424199 0.870689,-0.0722 1.632933,-0.306017 1.958672,-0.600806 z M 25.837211,65.149829 c 0.379685,-0.19197 0.824751,-0.682073 0.989035,-1.089118 0.414506,-1.027014 0.496381,-2.513526 0.145332,-2.638647 -0.342056,-0.121917 -2.76652,1.996624 -3.559676,3.11051 -0.301097,0.42285 -0.471103,0.892347 -0.377793,1.043326 0.200889,0.325046 1.79751,0.08236 2.803102,-0.426071 z m 11.283512,0.21733 c 0.146359,-0.439564 -3.532116,-4.112519 -3.966212,-3.960259 -0.424767,0.148986 -0.304012,1.87586 0.199222,2.849007 0.605934,1.171748 3.465929,2.015438 3.76699,1.111252 z m -5.636709,-0.681492 c 0.396691,-0.290068 0.461192,-0.604144 0.353734,-1.722472 -0.152408,-1.586144 -0.771618,-2.420691 -1.796083,-2.420691 -1.024464,0 -1.643674,0.834547 -1.796083,2.420691 -0.154572,1.608669 0.250568,2.077226 1.796083,2.077226 0.526457,0 1.175514,-0.159639 1.442349,-0.354754 z"
       id="path54" /></g></svg>
